<svg width="58" height="52" viewBox="0 0 58 52" fill="none" xmlns="http://www.w3.org/2000/svg">
<path d="M47.3801 42.66C46.3651 41.5358 45.5042 40.2814 44.8201 38.93C43.7394 36.8118 42.2456 34.9313 40.4269 33.3994C38.6081 31.8675 36.5011 30.715 34.2301 30.01C32.2442 29.396 30.1661 29.1354 28.0901 29.24C29.6011 29.1537 31.0889 29.6415 32.2553 30.6059C33.4218 31.5702 34.1808 32.9397 34.3801 34.44C34.9264 37.6817 36.3631 40.7077 38.5299 43.1799C40.6966 45.6522 43.5081 47.4733 46.6501 48.44C50.243 49.5442 54.093 49.4847 57.6501 48.27C53.6879 47.6238 50.0649 45.6448 47.3801 42.66Z" fill="url(#paint0_linear_702_17)"/>
<path d="M21.74 29.44C22.2017 31.4684 23.0139 33.4007 24.14 35.15C23.3177 33.8798 23.0012 32.3476 23.253 30.8556C23.5047 29.3635 24.3065 28.02 25.5 27.09C28.0349 24.9932 29.938 22.2339 30.9974 19.1194C32.0567 16.0049 32.2307 12.6575 31.5 9.45C30.6659 5.7807 28.6874 2.4715 25.85 0C27.2626 3.7761 27.3438 7.9214 26.08 11.75C25.5962 13.1954 24.9237 14.5706 24.08 15.84C22.7846 17.8341 21.9021 20.0678 21.4847 22.4089C21.0673 24.75 21.1235 27.151 21.65 29.47L21.74 29.44Z" fill="url(#paint1_linear_702_17)"/>
<path d="M31.29 35.56C30.6097 36.9126 29.4432 37.9581 28.0244 38.4866C26.6057 39.0152 25.0395 38.9878 23.64 38.41C20.5559 37.2542 17.2111 36.9788 13.9795 37.6145C10.7478 38.2502 7.7566 39.7721 5.3401 42.01C2.5848 44.5732 0.7148 47.9453 0 51.64C2.5639 48.5278 6.1126 46.383 10.06 45.56C11.543 45.2565 13.058 45.1389 14.57 45.21C16.9417 45.3329 19.3139 44.9794 21.5467 44.1705C23.7794 43.3615 25.8275 42.1135 27.57 40.5C29.095 39.0838 30.3607 37.412 31.31 35.56H31.29Z" fill="url(#paint2_linear_702_17)"/>
<defs>
<linearGradient id="paint0_linear_702_17" x1="28.0961" y1="28.6639" x2="57.2853" y2="40.2948" gradientUnits="userSpaceOnUse">
<stop stop-color="#5F5FF6"/>
<stop offset="0.494792" stop-color="#2C8CF4"/>
<stop offset="1" stop-color="#2BC48A"/>
</linearGradient>
<linearGradient id="paint1_linear_702_17" x1="21.2107" y1="-0.972421" x2="33.4117" y2="0.0326665" gradientUnits="userSpaceOnUse">
<stop stop-color="#5F5FF6"/>
<stop offset="0.494792" stop-color="#2C8CF4"/>
<stop offset="1" stop-color="#2BC48A"/>
</linearGradient>
<linearGradient id="paint2_linear_702_17" x1="0.00635576" y1="35.1151" x2="28.0872" y2="49.8628" gradientUnits="userSpaceOnUse">
<stop stop-color="#5F5FF6"/>
<stop offset="0.494792" stop-color="#2C8CF4"/>
<stop offset="1" stop-color="#2BC48A"/>
</linearGradient>
</defs>
</svg>
